<?xml version="1.0" encoding="utf-8"?>
<!-- Generator: Adobe Illustrator 16.0.0, SVG Export Plug-In . SVG Version: 6.00 Build 0)  -->
<!DOCTYPE svg PUBLIC "-//W3C//DTD SVG 1.1//EN" "http://www.w3.org/Graphics/SVG/1.1/DTD/svg11.dtd">
<svg version="1.1" xmlns="http://www.w3.org/2000/svg" xmlns:xlink="http://www.w3.org/1999/xlink" x="0px" y="0px" width="31.5px"
	 height="32.167px" viewBox="0 0 31.5 32.167" enable-background="new 0 0 31.5 32.167" xml:space="preserve">
<g id="Layer_1">
	<circle fill="#02B2D3" cx="15.589" cy="15.989" r="13.8"/>
</g>
<g id="Layer_7_copy">
	<g>
		<g>
			<g opacity="0.2">
				<g>
					<defs>
						<rect id="SVGID_1_" x="6.873" y="8.228" width="17.143" height="17.142"/>
					</defs>
					<clipPath id="SVGID_2_">
						<use xlink:href="#SVGID_1_"  overflow="visible"/>
					</clipPath>
					<polygon clip-path="url(#SVGID_2_)" fill="#231F20" points="22.301,13.37 22.301,9.941 8.587,9.941 8.587,13.37 8.587,23.654 
						22.301,23.654 					"/>
					<path clip-path="url(#SVGID_2_)" fill="#231F20" d="M22.301,8.228H8.587c-0.947,0-1.714,0.768-1.714,1.714v3.429v10.284
						c0,0.947,0.768,1.715,1.714,1.715h13.714c0.946,0,1.714-0.768,1.714-1.715V13.37V9.941C24.015,8.995,23.248,8.228,22.301,8.228
						"/>
				</g>
			</g>
			<path fill="#77B3D4" d="M8.587,23.654c-0.473,0-0.857-0.385-0.857-0.857V9.084c0-0.473,0.384-0.857,0.857-0.857h13.714
				c0.473,0,0.856,0.384,0.856,0.857v13.712c0,0.473-0.384,0.857-0.856,0.857H8.587z"/>
			<path fill="#FFFFFF" d="M22.301,9.084v3.429v10.284H8.587V12.513V9.084H22.301 M22.301,7.37H8.587
				c-0.947,0-1.714,0.768-1.714,1.714v3.429v10.284c0,0.947,0.768,1.715,1.714,1.715h13.714c0.946,0,1.714-0.768,1.714-1.715V12.513
				V9.084C24.015,8.138,23.248,7.37,22.301,7.37"/>
			<rect x="8.587" y="21.084" fill="#FFFFFF" width="13.714" height="1.713"/>
			<path fill="#4F5D73" d="M7.726,21.084H22.68v-1.252c0,0-0.73-1.277-1.408-2.076c-0.504-0.595-1.256-0.763-1.912-0.033
				l-1.181,1.134l-2.571-3.269c-0.957-1.217-2.524-1.217-3.481,0L7.726,21.084z"/>
			<path fill="#F5CF87" d="M20.158,12.513c0,0.71-0.575,1.286-1.285,1.286s-1.286-0.575-1.286-1.286s0.576-1.286,1.286-1.286
				S20.158,11.803,20.158,12.513"/>
			<path fill="#FFFFFF" d="M22.301,9.084v3.429v10.284H8.587V12.513V9.084H22.301 M22.301,7.37H8.587
				c-0.947,0-1.714,0.768-1.714,1.714v3.429v10.284c0,0.947,0.768,1.715,1.714,1.715h13.714c0.946,0,1.714-0.768,1.714-1.715V12.513
				V9.084C24.015,8.138,23.248,7.37,22.301,7.37"/>
		</g>
	</g>
	<g>
		<g>
			<g opacity="0.2">
				<g>
					<defs>
						<rect id="SVGID_3_" x="121.088" y="18.488" width="12" height="43.001"/>
					</defs>
					<clipPath id="SVGID_4_">
						<use xlink:href="#SVGID_3_"  overflow="visible"/>
					</clipPath>
					<line clip-path="url(#SVGID_4_)" fill="#231F20" x1="131.588" y1="19.988" x2="122.588" y2="59.988"/>
					<path clip-path="url(#SVGID_4_)" fill="#231F20" d="M122.59,61.489c-0.109,0-0.221-0.013-0.332-0.037
						c-0.808-0.183-1.314-0.984-1.133-1.793l9-40.001c0.182-0.808,0.985-1.315,1.793-1.133c0.808,0.182,1.315,0.983,1.133,1.793
						l-9,39.999C123.895,61.015,123.276,61.489,122.59,61.489"/>
				</g>
			</g>
			<g opacity="0.2">
				<g>
					<defs>
						<rect id="SVGID_5_" x="139.088" y="18.487" width="11" height="43.002"/>
					</defs>
					<clipPath id="SVGID_6_">
						<use xlink:href="#SVGID_5_"  overflow="visible"/>
					</clipPath>
					<line clip-path="url(#SVGID_6_)" fill="#231F20" x1="140.588" y1="19.988" x2="148.588" y2="59.988"/>
					<path clip-path="url(#SVGID_6_)" fill="#231F20" d="M148.586,61.489c-0.7,0-1.326-0.493-1.469-1.207l-8-40.001
						c-0.163-0.812,0.364-1.602,1.177-1.764c0.812-0.166,1.603,0.364,1.765,1.178l8,39.999c0.163,0.812-0.364,1.603-1.177,1.765
						C148.783,61.479,148.684,61.489,148.586,61.489"/>
				</g>
			</g>
			<g opacity="0.2">
				<g>
					<defs>
						<rect id="SVGID_7_" x="134.088" y="41.864" width="3" height="19.624"/>
					</defs>
					<clipPath id="SVGID_8_">
						<use xlink:href="#SVGID_7_"  overflow="visible"/>
					</clipPath>
					<path clip-path="url(#SVGID_8_)" fill="#231F20" d="M135.588,61.488c-0.829,0-1.5-0.671-1.5-1.5V43.364
						c0-0.829,0.671-1.5,1.5-1.5s1.5,0.671,1.5,1.5v16.624C137.088,60.817,136.417,61.488,135.588,61.488"/>
				</g>
			</g>
			<line fill="#F5CF87" x1="131.588" y1="17.988" x2="122.588" y2="57.988"/>
			
				<line fill="none" stroke="#E0995E" stroke-width="3" stroke-linecap="round" stroke-linejoin="round" stroke-miterlimit="10" x1="131.588" y1="17.988" x2="122.588" y2="57.988"/>
			<line fill="#F5CF87" x1="140.588" y1="17.988" x2="148.588" y2="57.988"/>
			
				<line fill="none" stroke="#E0995E" stroke-width="3" stroke-linecap="round" stroke-linejoin="round" stroke-miterlimit="10" x1="140.588" y1="17.988" x2="148.588" y2="57.988"/>
			
				<line fill="none" stroke="#E0995E" stroke-width="3" stroke-linecap="round" stroke-linejoin="round" stroke-miterlimit="10" x1="135.588" y1="41.363" x2="135.588" y2="57.988"/>
			<g opacity="0.2">
				<g>
					<defs>
						<rect id="SVGID_9_" x="118.588" y="25.988" width="34" height="22"/>
					</defs>
					<clipPath id="SVGID_10_">
						<use xlink:href="#SVGID_9_"  overflow="visible"/>
					</clipPath>
					<path clip-path="url(#SVGID_10_)" fill="#231F20" d="M152.588,46.23c0,0.971-0.951,1.758-2.125,1.758h-29.75
						c-1.174,0-2.125-0.787-2.125-1.758V27.746c0-0.971,0.951-1.758,2.125-1.758h29.75c1.174,0,2.125,0.787,2.125,1.758V46.23z"/>
				</g>
			</g>
			<path fill="#FFFFFF" d="M152.588,44.23c0,0.971-0.951,1.758-2.125,1.758h-29.75c-1.174,0-2.125-0.787-2.125-1.758V25.746
				c0-0.971,0.951-1.758,2.125-1.758h29.75c1.174,0,2.125,0.787,2.125,1.758V44.23z"/>
			<g opacity="0.2">
				<g>
					<defs>
						<rect id="SVGID_11_" x="125.088" y="24.488" width="21" height="3"/>
					</defs>
					<clipPath id="SVGID_12_">
						<use xlink:href="#SVGID_11_"  overflow="visible"/>
					</clipPath>
					<path clip-path="url(#SVGID_12_)" fill="#231F20" d="M144.588,27.488h-18c-0.829,0-1.5-0.671-1.5-1.5s0.671-1.5,1.5-1.5h18
						c0.829,0,1.5,0.671,1.5,1.5S145.417,27.488,144.588,27.488"/>
				</g>
			</g>
			<g opacity="0.2">
				<g>
					<defs>
						<rect id="SVGID_13_" x="125.088" y="46.488" width="21" height="3"/>
					</defs>
					<clipPath id="SVGID_14_">
						<use xlink:href="#SVGID_13_"  overflow="visible"/>
					</clipPath>
					<path clip-path="url(#SVGID_14_)" fill="#231F20" d="M144.588,49.488h-18c-0.829,0-1.5-0.671-1.5-1.5s0.671-1.5,1.5-1.5h18
						c0.829,0,1.5,0.671,1.5,1.5S145.417,49.488,144.588,49.488"/>
				</g>
			</g>
			
				<line fill="none" stroke="#F5CF87" stroke-width="3" stroke-linecap="round" stroke-linejoin="round" stroke-miterlimit="10" x1="126.588" y1="24.488" x2="144.588" y2="24.488"/>
			
				<line fill="none" stroke="#F5CF87" stroke-width="3" stroke-linecap="round" stroke-linejoin="round" stroke-miterlimit="10" x1="126.588" y1="46.488" x2="144.588" y2="46.488"/>
			<path fill="none" stroke="#C75C5C" stroke-width="3" stroke-linecap="round" stroke-miterlimit="10" d="M123.088,41.988
				c0,0,11-18,11-10s0,10,2,8s7-8,12-9"/>
		</g>
	</g>
</g>
<g id="Layer_13">
	<circle opacity="0.75" fill="#FFFFFF" cx="15.589" cy="15.989" r="13.8"/>
</g>
<g id="Layer_15">
	<path fill="#348335" d="M11.162,26.683c-0.646,0-1.261-0.301-1.658-0.82l-6.39-8.354c-0.701-0.916-0.526-2.227,0.39-2.928
		c0.916-0.699,2.229-0.523,2.929,0.391l4.371,5.717c2.411-4.34,7.649-12.303,15.98-17.687c0.971-0.624,2.263-0.35,2.889,0.619
		c0.625,0.969,0.349,2.263-0.62,2.888c-10.659,6.887-15.924,18.797-15.976,18.918c-0.295,0.678-0.927,1.15-1.662,1.24
		C11.331,26.677,11.245,26.683,11.162,26.683"/>
</g>
</svg>
