<?xml version="1.0" encoding="utf-8"?>
<!-- Generator: Adobe Illustrator 16.0.0, SVG Export Plug-In . SVG Version: 6.00 Build 0)  -->
<!DOCTYPE svg PUBLIC "-//W3C//DTD SVG 1.1//EN" "http://www.w3.org/Graphics/SVG/1.1/DTD/svg11.dtd">
<svg version="1.1" id="Layer_15" xmlns="http://www.w3.org/2000/svg" xmlns:xlink="http://www.w3.org/1999/xlink" x="0px" y="0px"
	 width="31.5px" height="32.167px" viewBox="0 0 31.5 32.167" enable-background="new 0 0 31.5 32.167" xml:space="preserve">
<path fill="#348335" d="M11.162,26.683c-0.646,0-1.261-0.301-1.658-0.82l-6.39-8.354c-0.701-0.916-0.526-2.227,0.39-2.928
	c0.916-0.699,2.229-0.523,2.929,0.391l4.371,5.717c2.411-4.34,7.649-12.303,15.98-17.687c0.971-0.624,2.263-0.35,2.889,0.619
	c0.625,0.969,0.349,2.263-0.62,2.888c-10.659,6.887-15.924,18.797-15.976,18.918c-0.295,0.678-0.927,1.15-1.662,1.24
	C11.331,26.677,11.245,26.683,11.162,26.683"/>
</svg>
