<?xml version="1.0" encoding="utf-8"?>
<!-- Generator: Adobe Illustrator 16.0.0, SVG Export Plug-In . SVG Version: 6.00 Build 0)  -->
<!DOCTYPE svg PUBLIC "-//W3C//DTD SVG 1.1//EN" "http://www.w3.org/Graphics/SVG/1.1/DTD/svg11.dtd">
<svg version="1.1" xmlns="http://www.w3.org/2000/svg" xmlns:xlink="http://www.w3.org/1999/xlink" x="0px" y="0px" width="31.5px"
	 height="32.167px" viewBox="0 0 31.5 32.167" enable-background="new 0 0 31.5 32.167" xml:space="preserve">
<g id="Layer_1">
	<circle fill="#02B2D3" cx="15.589" cy="15.989" r="13.8"/>
</g>
<g id="Layer_10">
	<g>
		<defs>
			<rect id="SVGID_1_" x="1.135" y="1.118" width="29.172" height="29.175"/>
		</defs>
		<clipPath id="SVGID_2_">
			<use xlink:href="#SVGID_1_"  display="none" overflow="visible"/>
		</clipPath>
		<g clip-path="url(#SVGID_2_)">
			<defs>
				<rect id="SVGID_3_" x="1.135" y="1.118" width="29.172" height="29.175"/>
			</defs>
			<clipPath id="SVGID_4_">
				<use xlink:href="#SVGID_3_"  display="none" overflow="visible"/>
			</clipPath>
			<path display="none" clip-path="url(#SVGID_4_)" fill="#77B3D4" d="M30.307,15.705c0,8.057-6.53,14.588-14.585,14.588
				c-8.056,0-14.587-6.531-14.587-14.588c0-8.056,6.531-14.587,14.587-14.587C23.777,1.118,30.307,7.649,30.307,15.705"/>
			<g opacity="0.2" clip-path="url(#SVGID_4_)">
				<g>
					<defs>
						<rect id="SVGID_5_" x="6.027" y="7.211" width="18.809" height="18.068"/>
					</defs>
					<clipPath id="SVGID_6_">
						<use xlink:href="#SVGID_5_"  overflow="visible"/>
					</clipPath>
					<path clip-path="url(#SVGID_6_)" fill="#231F20" d="M24.076,14.337h-2.579h-2.892h-2.576h-2.892h-2.579H6.605v3.192v6.838
						c0,0.504,0.407,0.912,0.912,0.912h16.408c0.503,0,0.911-0.408,0.911-0.912v-6.838v-3.192H24.076z"/>
					<path clip-path="url(#SVGID_6_)" fill="#231F20" d="M9.369,13.761l2.777-0.579l2.476-0.517l2.776-0.579l2.476-0.516
						l4.579-0.956l-0.559-2.677c-0.103-0.493-0.586-0.809-1.078-0.707l-0.255,0.053L20.085,7.8l-2.778,0.58l-2.473,0.516
						l-2.777,0.58L9.581,9.992l-2.828,0.589c-0.493,0.104-0.809,0.586-0.707,1.08l0.559,2.677l0.288-0.06L9.369,13.761z"/>
				</g>
			</g>
			<path clip-path="url(#SVGID_4_)" fill="#4F5D73" d="M6.605,16.616v6.839c0,0.504,0.407,0.912,0.912,0.912h16.408
				c0.505,0,0.911-0.408,0.911-0.912v-6.839H6.605z"/>
			<polygon clip-path="url(#SVGID_4_)" fill="#4F5D73" points="6.605,13.426 6.605,16.616 7.367,16.616 10.558,13.426 			"/>
			<polygon clip-path="url(#SVGID_4_)" fill="#4F5D73" points="18.605,13.426 15.416,16.616 18.305,16.616 21.497,13.426 			"/>
			<polygon clip-path="url(#SVGID_4_)" fill="#4F5D73" points="13.137,13.426 9.946,16.616 12.838,16.616 16.029,13.426 			"/>
			<polygon clip-path="url(#SVGID_4_)" fill="#FFFFFF" points="10.558,13.426 7.367,16.616 9.946,16.616 13.137,13.426 			"/>
			<polygon clip-path="url(#SVGID_4_)" fill="#FFFFFF" points="16.029,13.426 12.838,16.616 15.416,16.616 18.605,13.426 			"/>
			<polygon clip-path="url(#SVGID_4_)" fill="#FFFFFF" points="21.497,13.426 18.305,16.616 20.884,16.616 24.076,13.426 			"/>
			<polygon clip-path="url(#SVGID_4_)" fill="#4F5D73" points="24.836,13.426 24.076,13.426 20.884,16.616 23.626,16.616 
				24.836,15.406 			"/>
			<polygon clip-path="url(#SVGID_4_)" fill="#FFFFFF" points="23.626,16.616 24.836,16.616 24.836,15.406 			"/>
			<polygon clip-path="url(#SVGID_4_)" fill="#4F5D73" points="12.057,8.563 9.369,12.849 12.146,12.27 14.834,7.984 			"/>
			<polygon clip-path="url(#SVGID_4_)" fill="#4F5D73" points="17.309,7.468 14.622,11.753 17.398,11.174 20.085,6.888 			"/>
			<path clip-path="url(#SVGID_4_)" fill="#4F5D73" d="M6.753,9.669c-0.493,0.104-0.809,0.586-0.707,1.079l0.559,2.678l0.288-0.061
				l2.688-4.285L6.753,9.669z"/>
			<polygon clip-path="url(#SVGID_4_)" fill="#FFFFFF" points="9.581,9.08 6.893,13.365 9.369,12.849 12.057,8.563 			"/>
			<polygon clip-path="url(#SVGID_4_)" fill="#FFFFFF" points="14.834,7.984 12.146,12.27 14.622,11.753 17.309,7.468 			"/>
			<polygon clip-path="url(#SVGID_4_)" fill="#FFFFFF" points="22.561,6.372 20.083,6.888 17.398,11.174 19.874,10.658 			"/>
			<path clip-path="url(#SVGID_4_)" fill="#4F5D73" d="M23.894,7.024c-0.103-0.492-0.586-0.809-1.078-0.707l-0.255,0.054
				l-2.688,4.286l2.784-0.58l1.405-2.243L23.894,7.024z"/>
			<polygon clip-path="url(#SVGID_4_)" fill="#FFFFFF" points="24.063,7.834 22.658,10.077 24.453,9.702 			"/>
			<g opacity="0.2" clip-path="url(#SVGID_4_)">
				<g>
					<defs>
						<rect id="SVGID_7_" x="5.693" y="12.97" width="2.735" height="2.735"/>
					</defs>
					<clipPath id="SVGID_8_">
						<use xlink:href="#SVGID_7_"  overflow="visible"/>
					</clipPath>
					<path clip-path="url(#SVGID_8_)" fill="#231F20" d="M8.428,14.337c0,0.755-0.612,1.368-1.368,1.368
						c-0.755,0-1.368-0.612-1.368-1.368c0-0.756,0.612-1.368,1.368-1.368C7.816,12.97,8.428,13.582,8.428,14.337"/>
				</g>
			</g>
			<path clip-path="url(#SVGID_4_)" fill="#4F5D73" d="M8.428,13.426c0,0.756-0.612,1.368-1.368,1.368
				c-0.755,0-1.368-0.612-1.368-1.368c0-0.755,0.612-1.368,1.368-1.368C7.816,12.058,8.428,12.67,8.428,13.426"/>
		</g>
	</g>
</g>
<g id="Layer_13">
	<circle opacity="0.75" fill="#FFFFFF" cx="15.589" cy="15.989" r="13.8"/>
</g>
<g id="Layer_15">
	<path fill="#348335" d="M11.162,26.683c-0.646,0-1.261-0.301-1.658-0.82l-6.39-8.354c-0.701-0.916-0.526-2.227,0.39-2.928
		c0.916-0.699,2.229-0.523,2.929,0.391l4.371,5.717c2.411-4.34,7.649-12.303,15.98-17.687c0.971-0.624,2.263-0.35,2.889,0.619
		c0.625,0.969,0.349,2.263-0.62,2.888c-10.659,6.887-15.924,18.797-15.976,18.918c-0.295,0.678-0.927,1.15-1.662,1.24
		C11.331,26.677,11.245,26.683,11.162,26.683"/>
</g>
</svg>
