<?xml version="1.0" encoding="utf-8"?>
<!-- Generator: Adobe Illustrator 16.0.0, SVG Export Plug-In . SVG Version: 6.00 Build 0)  -->
<!DOCTYPE svg PUBLIC "-//W3C//DTD SVG 1.1//EN" "http://www.w3.org/Graphics/SVG/1.1/DTD/svg11.dtd">
<svg version="1.1" xmlns="http://www.w3.org/2000/svg" xmlns:xlink="http://www.w3.org/1999/xlink" x="0px" y="0px" width="31.5px"
	 height="32.167px" viewBox="0 0 31.5 32.167" enable-background="new 0 0 31.5 32.167" xml:space="preserve">
<g id="Layer_1">
	<circle fill="#02B2D3" cx="15.589" cy="15.989" r="13.8"/>
</g>
<g id="Layer_10">
	<g>
		<g>
			<g opacity="0.2">
				<g>
					<defs>
						<rect id="SVGID_1_" x="5.854" y="11.371" width="19.518" height="10.249"/>
					</defs>
					<clipPath id="SVGID_2_">
						<use xlink:href="#SVGID_1_"  overflow="visible"/>
					</clipPath>
					<path clip-path="url(#SVGID_2_)" fill="#231F20" d="M25.373,20.606c0,0.56-0.436,1.014-0.976,1.014H6.83
						c-0.539,0-0.976-0.454-0.976-1.014v-8.221c0-0.561,0.437-1.015,0.976-1.015h17.567c0.54,0,0.976,0.454,0.976,1.015V20.606z"/>
				</g>
			</g>
			<path fill="#F5CF87" d="M25.373,19.631c0,0.56-0.436,1.014-0.976,1.014H6.83c-0.539,0-0.976-0.454-0.976-1.014V11.41
				c0-0.561,0.437-1.014,0.976-1.014h17.567c0.54,0,0.976,0.454,0.976,1.014V19.631z"/>
			<g opacity="0.2">
				<g>
					<defs>
						<rect id="SVGID_3_" x="7.074" y="12.355" width="17.079" height="7.313"/>
					</defs>
					<clipPath id="SVGID_4_">
						<use xlink:href="#SVGID_3_"  overflow="visible"/>
					</clipPath>
					<path clip-path="url(#SVGID_4_)" fill="#231F20" d="M19.46,18.204h-7.695c-0.435,0-0.788,0.328-0.788,0.732
						s0.353,0.732,0.788,0.732h7.695c0.437,0,0.789-0.328,0.789-0.732S19.897,18.204,19.46,18.204"/>
					<path clip-path="url(#SVGID_4_)" fill="#231F20" d="M9.758,18.204c-0.404,0-0.732,0.328-0.732,0.732s0.328,0.732,0.732,0.732
						c0.404,0,0.731-0.328,0.731-0.732S10.162,18.204,9.758,18.204"/>
					<path clip-path="url(#SVGID_4_)" fill="#231F20" d="M7.806,18.204c-0.404,0-0.732,0.328-0.732,0.732s0.328,0.732,0.732,0.732
						s0.732-0.328,0.732-0.732S8.21,18.204,7.806,18.204"/>
					<path clip-path="url(#SVGID_4_)" fill="#231F20" d="M23.421,18.204c-0.404,0-0.732,0.328-0.732,0.732s0.328,0.732,0.732,0.732
						c0.403,0,0.731-0.328,0.731-0.732S23.825,18.204,23.421,18.204"/>
					<path clip-path="url(#SVGID_4_)" fill="#231F20" d="M21.469,18.204c-0.404,0-0.732,0.328-0.732,0.732s0.328,0.732,0.732,0.732
						s0.732-0.328,0.732-0.732S21.874,18.204,21.469,18.204"/>
					<path clip-path="url(#SVGID_4_)" fill="#231F20" d="M9.758,16.179H7.806c-0.404,0-0.732,0.329-0.732,0.733
						c0,0.405,0.328,0.731,0.732,0.731h1.952c0.404,0,0.731-0.326,0.731-0.731C10.49,16.507,10.162,16.179,9.758,16.179"/>
					<path clip-path="url(#SVGID_4_)" fill="#231F20" d="M23.421,16.179h-1.952c-0.404,0-0.732,0.329-0.732,0.733
						c0,0.405,0.328,0.731,0.732,0.731h1.952c0.403,0,0.731-0.326,0.731-0.731C24.153,16.507,23.825,16.179,23.421,16.179"/>
					<path clip-path="url(#SVGID_4_)" fill="#231F20" d="M9.758,14.299c-0.404,0-0.732,0.328-0.732,0.732s0.328,0.732,0.732,0.732
						c0.404,0,0.731-0.328,0.731-0.732S10.162,14.299,9.758,14.299"/>
					<path clip-path="url(#SVGID_4_)" fill="#231F20" d="M7.806,15.763c0.404,0,0.732-0.328,0.732-0.732s-0.328-0.732-0.732-0.732
						s-0.732,0.328-0.732,0.732S7.402,15.763,7.806,15.763"/>
					<path clip-path="url(#SVGID_4_)" fill="#231F20" d="M23.421,14.299c-0.404,0-0.732,0.328-0.732,0.732s0.328,0.732,0.732,0.732
						c0.403,0,0.731-0.328,0.731-0.732S23.825,14.299,23.421,14.299"/>
					<path clip-path="url(#SVGID_4_)" fill="#231F20" d="M21.469,15.763c0.404,0,0.732-0.328,0.732-0.732s-0.328-0.732-0.732-0.732
						s-0.732,0.328-0.732,0.732S21.065,15.763,21.469,15.763"/>
					<path clip-path="url(#SVGID_4_)" fill="#231F20" d="M9.758,12.355c-0.404,0-0.732,0.328-0.732,0.732
						c0,0.403,0.328,0.732,0.732,0.732c0.404,0,0.731-0.329,0.731-0.732C10.49,12.683,10.162,12.355,9.758,12.355"/>
					<path clip-path="url(#SVGID_4_)" fill="#231F20" d="M7.806,13.819c0.404,0,0.732-0.329,0.732-0.732
						c0-0.404-0.328-0.732-0.732-0.732s-0.732,0.328-0.732,0.732C7.074,13.491,7.402,13.819,7.806,13.819"/>
					<path clip-path="url(#SVGID_4_)" fill="#231F20" d="M13.662,17.643c0.404,0,0.731-0.326,0.731-0.731
						c0-0.404-0.328-0.733-0.731-0.733c-0.404,0-0.732,0.329-0.732,0.733C12.93,17.316,13.258,17.643,13.662,17.643"/>
					<path clip-path="url(#SVGID_4_)" fill="#231F20" d="M11.71,17.643c0.404,0,0.732-0.326,0.732-0.731
						c0-0.404-0.328-0.733-0.732-0.733s-0.732,0.329-0.732,0.733C10.978,17.316,11.306,17.643,11.71,17.643"/>
					<path clip-path="url(#SVGID_4_)" fill="#231F20" d="M13.662,15.763c0.404,0,0.731-0.328,0.731-0.732s-0.328-0.732-0.731-0.732
						c-0.404,0-0.732,0.328-0.732,0.732S13.258,15.763,13.662,15.763"/>
					<path clip-path="url(#SVGID_4_)" fill="#231F20" d="M11.71,15.763c0.404,0,0.732-0.328,0.732-0.732s-0.328-0.732-0.732-0.732
						s-0.732,0.328-0.732,0.732S11.306,15.763,11.71,15.763"/>
					<path clip-path="url(#SVGID_4_)" fill="#231F20" d="M13.662,13.819c0.404,0,0.731-0.329,0.731-0.732
						c0-0.404-0.328-0.732-0.731-0.732c-0.404,0-0.732,0.328-0.732,0.732C12.93,13.491,13.258,13.819,13.662,13.819"/>
					<path clip-path="url(#SVGID_4_)" fill="#231F20" d="M11.71,13.819c0.404,0,0.732-0.329,0.732-0.732
						c0-0.404-0.328-0.732-0.732-0.732s-0.732,0.328-0.732,0.732C10.978,13.491,11.306,13.819,11.71,13.819"/>
					<path clip-path="url(#SVGID_4_)" fill="#231F20" d="M17.566,17.643c0.404,0,0.731-0.326,0.731-0.731
						c0-0.404-0.327-0.733-0.731-0.733s-0.732,0.329-0.732,0.733C16.833,17.316,17.162,17.643,17.566,17.643"/>
					<path clip-path="url(#SVGID_4_)" fill="#231F20" d="M15.614,17.643c0.404,0,0.731-0.326,0.731-0.731
						c0-0.404-0.328-0.733-0.731-0.733c-0.404,0-0.732,0.329-0.732,0.733C14.882,17.316,15.209,17.643,15.614,17.643"/>
					<path clip-path="url(#SVGID_4_)" fill="#231F20" d="M17.566,15.763c0.404,0,0.731-0.328,0.731-0.732s-0.327-0.732-0.731-0.732
						s-0.732,0.328-0.732,0.732S17.162,15.763,17.566,15.763"/>
					<path clip-path="url(#SVGID_4_)" fill="#231F20" d="M15.614,15.763c0.404,0,0.731-0.328,0.731-0.732s-0.328-0.732-0.731-0.732
						c-0.404,0-0.732,0.328-0.732,0.732S15.209,15.763,15.614,15.763"/>
					<path clip-path="url(#SVGID_4_)" fill="#231F20" d="M17.566,13.819c0.404,0,0.731-0.329,0.731-0.732
						c0-0.404-0.327-0.732-0.731-0.732s-0.732,0.328-0.732,0.732C16.833,13.491,17.162,13.819,17.566,13.819"/>
					<path clip-path="url(#SVGID_4_)" fill="#231F20" d="M19.517,16.179c-0.403,0-0.731,0.329-0.731,0.733
						c0,0.405,0.328,0.731,0.731,0.731c0.404,0,0.732-0.326,0.732-0.731C20.25,16.507,19.921,16.179,19.517,16.179"/>
					<path clip-path="url(#SVGID_4_)" fill="#231F20" d="M19.517,14.299c-0.403,0-0.731,0.328-0.731,0.732s0.328,0.732,0.731,0.732
						c0.404,0,0.732-0.328,0.732-0.732S19.921,14.299,19.517,14.299"/>
					<path clip-path="url(#SVGID_4_)" fill="#231F20" d="M19.517,12.355c-0.403,0-0.731,0.328-0.731,0.732
						c0,0.403,0.328,0.732,0.731,0.732c0.404,0,0.732-0.329,0.732-0.732C20.25,12.683,19.921,12.355,19.517,12.355"/>
					<path clip-path="url(#SVGID_4_)" fill="#231F20" d="M15.614,13.819c0.404,0,0.731-0.329,0.731-0.732
						c0-0.404-0.328-0.732-0.731-0.732c-0.404,0-0.732,0.328-0.732,0.732C14.882,13.491,15.209,13.819,15.614,13.819"/>
					<path clip-path="url(#SVGID_4_)" fill="#231F20" d="M23.421,13.819c0.403,0,0.731-0.329,0.731-0.732
						c0-0.404-0.328-0.732-0.731-0.732c-0.404,0-0.732,0.328-0.732,0.732C22.689,13.491,23.017,13.819,23.421,13.819"/>
					<path clip-path="url(#SVGID_4_)" fill="#231F20" d="M21.469,13.819c0.404,0,0.732-0.329,0.732-0.732
						c0-0.404-0.328-0.732-0.732-0.732s-0.732,0.328-0.732,0.732C20.737,13.491,21.065,13.819,21.469,13.819"/>
				</g>
			</g>
			<path fill="#FFFFFF" d="M19.46,17.717h-7.695c-0.435,0-0.788,0.328-0.788,0.732c0,0.402,0.353,0.73,0.788,0.73h7.695
				c0.437,0,0.789-0.328,0.789-0.73C20.25,18.045,19.897,17.717,19.46,17.717"/>
			<path fill="#FFFFFF" d="M9.758,17.717c-0.404,0-0.732,0.328-0.732,0.732c0,0.402,0.328,0.73,0.732,0.73
				c0.404,0,0.731-0.328,0.731-0.73C10.49,18.045,10.162,17.717,9.758,17.717"/>
			<path fill="#FFFFFF" d="M7.806,17.717c-0.404,0-0.732,0.328-0.732,0.732c0,0.402,0.328,0.73,0.732,0.73s0.732-0.328,0.732-0.73
				C8.538,18.045,8.21,17.717,7.806,17.717"/>
			<path fill="#FFFFFF" d="M23.421,17.717c-0.404,0-0.732,0.328-0.732,0.732c0,0.402,0.328,0.73,0.732,0.73
				c0.403,0,0.731-0.328,0.731-0.73C24.153,18.045,23.825,17.717,23.421,17.717"/>
			<path fill="#FFFFFF" d="M21.469,17.717c-0.404,0-0.732,0.328-0.732,0.732c0,0.402,0.328,0.73,0.732,0.73s0.732-0.328,0.732-0.73
				C22.202,18.045,21.874,17.717,21.469,17.717"/>
			<path fill="#FFFFFF" d="M9.758,15.69H7.806c-0.404,0-0.732,0.329-0.732,0.732c0,0.404,0.328,0.732,0.732,0.732h1.952
				c0.404,0,0.731-0.328,0.731-0.732C10.49,16.019,10.162,15.69,9.758,15.69"/>
			<path fill="#FFFFFF" d="M23.421,15.69h-1.952c-0.404,0-0.732,0.329-0.732,0.732c0,0.404,0.328,0.732,0.732,0.732h1.952
				c0.403,0,0.731-0.328,0.731-0.732C24.153,16.019,23.825,15.69,23.421,15.69"/>
			<path fill="#FFFFFF" d="M9.758,13.811c-0.404,0-0.732,0.328-0.732,0.732c0,0.404,0.328,0.731,0.732,0.731
				c0.404,0,0.731-0.328,0.731-0.731C10.49,14.139,10.162,13.811,9.758,13.811"/>
			<path fill="#FFFFFF" d="M7.806,15.275c0.404,0,0.732-0.328,0.732-0.731c0-0.404-0.328-0.732-0.732-0.732
				s-0.732,0.328-0.732,0.732C7.074,14.947,7.402,15.275,7.806,15.275"/>
			<path fill="#FFFFFF" d="M23.421,13.811c-0.404,0-0.732,0.328-0.732,0.732c0,0.404,0.328,0.731,0.732,0.731
				c0.403,0,0.731-0.328,0.731-0.731C24.153,14.139,23.825,13.811,23.421,13.811"/>
			<path fill="#FFFFFF" d="M21.469,15.275c0.404,0,0.732-0.328,0.732-0.731c0-0.404-0.328-0.732-0.732-0.732
				s-0.732,0.328-0.732,0.732C20.737,14.947,21.065,15.275,21.469,15.275"/>
			<path fill="#FFFFFF" d="M9.758,11.868c-0.404,0-0.732,0.327-0.732,0.732c0,0.403,0.328,0.731,0.732,0.731
				c0.404,0,0.731-0.328,0.731-0.731C10.49,12.195,10.162,11.868,9.758,11.868"/>
			<path fill="#FFFFFF" d="M7.806,13.331c0.404,0,0.732-0.328,0.732-0.731c0-0.405-0.328-0.732-0.732-0.732S7.074,12.195,7.074,12.6
				C7.074,13.003,7.402,13.331,7.806,13.331"/>
			<path fill="#FFFFFF" d="M13.662,17.155c0.404,0,0.731-0.328,0.731-0.732c0-0.404-0.328-0.732-0.731-0.732
				c-0.404,0-0.732,0.329-0.732,0.732C12.93,16.827,13.258,17.155,13.662,17.155"/>
			<path fill="#FFFFFF" d="M11.71,17.155c0.404,0,0.732-0.328,0.732-0.732c0-0.404-0.328-0.732-0.732-0.732
				s-0.732,0.329-0.732,0.732C10.978,16.827,11.306,17.155,11.71,17.155"/>
			<path fill="#FFFFFF" d="M13.662,15.275c0.404,0,0.731-0.328,0.731-0.731c0-0.404-0.328-0.732-0.731-0.732
				c-0.404,0-0.732,0.328-0.732,0.732C12.93,14.947,13.258,15.275,13.662,15.275"/>
			<path fill="#FFFFFF" d="M11.71,15.275c0.404,0,0.732-0.328,0.732-0.731c0-0.404-0.328-0.732-0.732-0.732
				s-0.732,0.328-0.732,0.732C10.978,14.947,11.306,15.275,11.71,15.275"/>
			<path fill="#FFFFFF" d="M13.662,13.331c0.404,0,0.731-0.328,0.731-0.731c0-0.405-0.328-0.732-0.731-0.732
				c-0.404,0-0.732,0.327-0.732,0.732C12.93,13.003,13.258,13.331,13.662,13.331"/>
			<path fill="#FFFFFF" d="M11.71,13.331c0.404,0,0.732-0.328,0.732-0.731c0-0.405-0.328-0.732-0.732-0.732
				s-0.732,0.327-0.732,0.732C10.978,13.003,11.306,13.331,11.71,13.331"/>
			<path fill="#FFFFFF" d="M17.566,17.155c0.404,0,0.731-0.328,0.731-0.732c0-0.404-0.327-0.732-0.731-0.732
				s-0.732,0.329-0.732,0.732C16.833,16.827,17.162,17.155,17.566,17.155"/>
			<path fill="#FFFFFF" d="M15.614,17.155c0.404,0,0.731-0.328,0.731-0.732c0-0.404-0.328-0.732-0.731-0.732
				c-0.404,0-0.732,0.329-0.732,0.732C14.882,16.827,15.209,17.155,15.614,17.155"/>
			<path fill="#FFFFFF" d="M17.566,15.275c0.404,0,0.731-0.328,0.731-0.731c0-0.404-0.327-0.732-0.731-0.732
				s-0.732,0.328-0.732,0.732C16.833,14.947,17.162,15.275,17.566,15.275"/>
			<path fill="#FFFFFF" d="M15.614,15.275c0.404,0,0.731-0.328,0.731-0.731c0-0.404-0.328-0.732-0.731-0.732
				c-0.404,0-0.732,0.328-0.732,0.732C14.882,14.947,15.209,15.275,15.614,15.275"/>
			<path fill="#FFFFFF" d="M17.566,13.331c0.404,0,0.731-0.328,0.731-0.731c0-0.405-0.327-0.732-0.731-0.732
				s-0.732,0.327-0.732,0.732C16.833,13.003,17.162,13.331,17.566,13.331"/>
			<path fill="#FFFFFF" d="M19.517,15.69c-0.403,0-0.731,0.329-0.731,0.732c0,0.404,0.328,0.732,0.731,0.732
				c0.404,0,0.732-0.328,0.732-0.732C20.25,16.019,19.921,15.69,19.517,15.69"/>
			<path fill="#FFFFFF" d="M19.517,13.811c-0.403,0-0.731,0.328-0.731,0.732c0,0.404,0.328,0.731,0.731,0.731
				c0.404,0,0.732-0.328,0.732-0.731C20.25,14.139,19.921,13.811,19.517,13.811"/>
			<path fill="#FFFFFF" d="M19.517,11.868c-0.403,0-0.731,0.327-0.731,0.732c0,0.403,0.328,0.731,0.731,0.731
				c0.404,0,0.732-0.328,0.732-0.731C20.25,12.195,19.921,11.868,19.517,11.868"/>
			<path fill="#FFFFFF" d="M15.614,13.331c0.404,0,0.731-0.328,0.731-0.731c0-0.405-0.328-0.732-0.731-0.732
				c-0.404,0-0.732,0.327-0.732,0.732C14.882,13.003,15.209,13.331,15.614,13.331"/>
			<path fill="#FFFFFF" d="M23.421,13.331c0.403,0,0.731-0.328,0.731-0.731c0-0.405-0.328-0.732-0.731-0.732
				c-0.404,0-0.732,0.327-0.732,0.732C22.689,13.003,23.017,13.331,23.421,13.331"/>
			<path fill="#FFFFFF" d="M21.469,13.331c0.404,0,0.732-0.328,0.732-0.731c0-0.405-0.328-0.732-0.732-0.732
				s-0.732,0.327-0.732,0.732C20.737,13.003,21.065,13.331,21.469,13.331"/>
		</g>
	</g>
</g>
<g id="Layer_13">
	<circle opacity="0.75" fill="#FFFFFF" cx="15.589" cy="15.989" r="13.8"/>
</g>
</svg>
