<?xml version="1.0" encoding="utf-8"?>
<!-- Generator: Adobe Illustrator 16.0.0, SVG Export Plug-In . SVG Version: 6.00 Build 0)  -->
<!DOCTYPE svg PUBLIC "-//W3C//DTD SVG 1.1//EN" "http://www.w3.org/Graphics/SVG/1.1/DTD/svg11.dtd">
<svg version="1.1" xmlns="http://www.w3.org/2000/svg" xmlns:xlink="http://www.w3.org/1999/xlink" x="0px" y="0px" width="31.5px"
	 height="32.167px" viewBox="0 0 31.5 32.167" enable-background="new 0 0 31.5 32.167" xml:space="preserve">
<g id="Layer_1">
	<circle fill="#02B2D3" cx="15.589" cy="15.989" r="13.8"/>
</g>
<g id="Layer_9">
	<rect x="1.403" y="1.417" fill="none" width="27.646" height="27.647"/>
	<rect x="1.403" y="1.417" fill="none" width="27.646" height="27.647"/>
	<rect x="1.403" y="1.417" fill="none" width="27.646" height="27.647"/>
	<g opacity="0.2">
		<g>
			<defs>
				<rect id="SVGID_1_" x="6.039" y="7.191" width="17.827" height="17.123"/>
			</defs>
			<clipPath id="SVGID_2_">
				<use xlink:href="#SVGID_1_"  overflow="visible"/>
			</clipPath>
		</g>
	</g>
	<rect x="1.403" y="1.417" fill="none" width="27.646" height="27.647"/>
	<g opacity="0.2">
		<g>
			<defs>
				<rect id="SVGID_3_" x="14.363" y="6.602" width="1.728" height="20.736"/>
			</defs>
			<clipPath id="SVGID_4_">
				<use xlink:href="#SVGID_3_"  overflow="visible"/>
			</clipPath>
			<path clip-path="url(#SVGID_4_)" fill="#231F20" d="M15.227,27.338c-0.477,0-0.864-0.387-0.864-0.863V7.465
				c0-0.477,0.387-0.864,0.864-0.864s0.864,0.387,0.864,0.864v19.009C16.09,26.951,15.703,27.338,15.227,27.338"/>
		</g>
	</g>
	<g>
		<defs>
			<rect id="SVGID_5_" x="1.403" y="1.417" width="27.646" height="27.647"/>
		</defs>
		<clipPath id="SVGID_6_">
			<use xlink:href="#SVGID_5_"  overflow="visible"/>
		</clipPath>
		
			<line clip-path="url(#SVGID_6_)" fill="none" stroke="#F5CF87" stroke-width="1.728" stroke-linecap="round" stroke-miterlimit="10" x1="15.227" y1="6.602" x2="15.227" y2="25.609"/>
	</g>
	<rect x="1.403" y="1.417" fill="none" width="27.646" height="27.647"/>
	<g opacity="0.2">
		<g>
			<path fill="#231F20" d="M9.388,8.33c-0.179,0-0.433,0.106-0.564,0.236l-2.138,2.12c-0.132,0.13-0.132,0.343,0,0.473l2.138,2.119
				c0.131,0.13,0.385,0.237,0.564,0.237h8.966c0.18,0,0.327-0.156,0.327-0.346V8.674c0-0.189-0.147-0.345-0.327-0.345H9.388
				L9.388,8.33z"/>
		</g>
	</g>
	<g>
		<defs>
			<rect id="SVGID_7_" x="1.403" y="1.417" width="27.646" height="27.647"/>
		</defs>
		<clipPath id="SVGID_8_">
			<use xlink:href="#SVGID_7_"  overflow="visible"/>
		</clipPath>
		<g clip-path="url(#SVGID_8_)">
			<g opacity="0.2">
				<g>
					<defs>
						<rect id="SVGID_9_" x="11.771" y="14.377" width="13.822" height="5.185"/>
					</defs>
					<clipPath id="SVGID_10_">
						<use xlink:href="#SVGID_9_"  overflow="visible"/>
					</clipPath>
					<path clip-path="url(#SVGID_10_)" fill="#231F20" d="M22.792,19.562c0.179,0,0.433-0.107,0.564-0.236l2.138-2.121
						c0.132-0.129,0.132-0.341,0-0.472l-2.138-2.12c-0.132-0.13-0.386-0.236-0.564-0.236H12.098c-0.18,0-0.327,0.155-0.327,0.345
						v4.494c0,0.188,0.146,0.346,0.327,0.346H22.792L22.792,19.562z"/>
				</g>
			</g>
			<g>
				<defs>
					<rect id="SVGID_11_" x="1.403" y="1.417" width="27.646" height="27.647"/>
				</defs>
				<clipPath id="SVGID_12_">
					<use xlink:href="#SVGID_11_"  overflow="visible"/>
				</clipPath>
				<path clip-path="url(#SVGID_12_)" fill="#4F5D73" d="M9.388,7.465c-0.179,0-0.433,0.106-0.564,0.236l-2.138,2.12
					c-0.132,0.13-0.132,0.342,0,0.473l2.138,2.119c0.131,0.13,0.385,0.236,0.564,0.236h8.966c0.18,0,0.327-0.155,0.327-0.345V7.81
					c0-0.189-0.147-0.345-0.327-0.345H9.388L9.388,7.465z"/>
			</g>
			<g>
				<defs>
					<rect id="SVGID_13_" x="1.403" y="1.417" width="27.646" height="27.647"/>
				</defs>
				<clipPath id="SVGID_14_">
					<use xlink:href="#SVGID_13_"  overflow="visible"/>
				</clipPath>
				<path clip-path="url(#SVGID_14_)" fill="#FFFFFF" d="M22.792,18.697c0.179,0,0.433-0.105,0.564-0.235l2.138-2.12
					c0.132-0.13,0.132-0.343,0-0.473l-2.138-2.12c-0.132-0.13-0.386-0.236-0.564-0.236H12.098c-0.18,0-0.327,0.155-0.327,0.345
					v4.495c0,0.188,0.146,0.344,0.327,0.344H22.792L22.792,18.697z"/>
			</g>
		</g>
	</g>
</g>
<g id="Layer_13">
	<circle opacity="0.75" fill="#FFFFFF" cx="15.589" cy="15.989" r="13.8"/>
</g>
</svg>
