<?xml version="1.0" encoding="utf-8"?>
<!-- Generator: Adobe Illustrator 16.0.0, SVG Export Plug-In . SVG Version: 6.00 Build 0)  -->
<!DOCTYPE svg PUBLIC "-//W3C//DTD SVG 1.1//EN" "http://www.w3.org/Graphics/SVG/1.1/DTD/svg11.dtd">
<svg version="1.1" xmlns="http://www.w3.org/2000/svg" xmlns:xlink="http://www.w3.org/1999/xlink" x="0px" y="0px"
	 width="49.375px" height="49.375px" viewBox="0 0 49.375 49.375" enable-background="new 0 0 49.375 49.375" xml:space="preserve">
<g id="Layer_1">
	<circle fill="#02B2D3" cx="24.422" cy="24.24" r="23"/>
</g>
<g id="Layer_7">
	<g>
		<g>
			<g opacity="0.2">
				<g>
					<defs>
						<rect id="SVGID_1_" x="12.751" y="7.238" width="9.6" height="34.4"/>
					</defs>
					<clipPath id="SVGID_2_">
						<use xlink:href="#SVGID_1_"  overflow="visible"/>
					</clipPath>
					<line clip-path="url(#SVGID_2_)" fill="#231F20" x1="21.151" y1="8.438" x2="13.952" y2="40.438"/>
					<path clip-path="url(#SVGID_2_)" fill="#231F20" d="M13.953,41.639c-0.087,0-0.177-0.01-0.266-0.029
						c-0.646-0.146-1.052-0.788-0.906-1.436l7.2-32c0.145-0.646,0.788-1.052,1.434-0.906c0.646,0.146,1.053,0.787,0.907,1.435
						l-7.2,31.999C14.997,41.259,14.501,41.639,13.953,41.639"/>
				</g>
			</g>
			<g opacity="0.2">
				<g>
					<defs>
						<rect id="SVGID_3_" x="27.157" y="7.237" width="8.8" height="34.401"/>
					</defs>
					<clipPath id="SVGID_4_">
						<use xlink:href="#SVGID_3_"  overflow="visible"/>
					</clipPath>
					<line clip-path="url(#SVGID_4_)" fill="#231F20" x1="28.357" y1="8.438" x2="34.758" y2="40.438"/>
					<path clip-path="url(#SVGID_4_)" fill="#231F20" d="M34.756,41.639c-0.561,0-1.061-0.395-1.175-0.966l-6.4-32
						c-0.13-0.649,0.292-1.281,0.941-1.411c0.65-0.133,1.282,0.291,1.412,0.942l6.399,32c0.131,0.649-0.291,1.282-0.941,1.412
						C34.913,41.631,34.834,41.639,34.756,41.639"/>
				</g>
			</g>
			<g opacity="0.2">
				<g>
					<defs>
						<rect id="SVGID_5_" x="23.153" y="25.938" width="2.405" height="15.7"/>
					</defs>
					<clipPath id="SVGID_6_">
						<use xlink:href="#SVGID_5_"  overflow="visible"/>
					</clipPath>
					<path clip-path="url(#SVGID_6_)" fill="#231F20" d="M24.355,41.639c-0.664,0-1.202-0.537-1.202-1.2v-13.3
						c0-0.662,0.538-1.2,1.202-1.2c0.665,0,1.203,0.538,1.203,1.2v13.3C25.558,41.102,25.02,41.639,24.355,41.639"/>
				</g>
			</g>
			<line fill="#F5CF87" x1="21.151" y1="6.838" x2="13.952" y2="38.838"/>
			
				<line fill="none" stroke="#E0995E" stroke-width="2.4" stroke-linecap="round" stroke-linejoin="round" stroke-miterlimit="10" x1="21.151" y1="6.838" x2="13.952" y2="38.838"/>
			<line fill="#F5CF87" x1="28.357" y1="6.838" x2="34.758" y2="38.838"/>
			
				<line fill="none" stroke="#E0995E" stroke-width="2.4" stroke-linecap="round" stroke-linejoin="round" stroke-miterlimit="10" x1="28.357" y1="6.838" x2="34.758" y2="38.838"/>
			
				<line fill="none" stroke="#E0995E" stroke-width="2.4" stroke-linecap="round" stroke-linejoin="round" stroke-miterlimit="10" x1="24.355" y1="25.539" x2="24.355" y2="38.838"/>
			<g opacity="0.2">
				<g>
					<defs>
						<rect id="SVGID_7_" x="10.751" y="13.238" width="27.206" height="17.6"/>
					</defs>
					<clipPath id="SVGID_8_">
						<use xlink:href="#SVGID_7_"  overflow="visible"/>
					</clipPath>
					<path clip-path="url(#SVGID_8_)" fill="#231F20" d="M37.957,29.432c0,0.777-0.761,1.406-1.699,1.406H12.452
						c-0.939,0-1.7-0.629-1.7-1.406V14.645c0-0.777,0.761-1.406,1.7-1.406h23.806c0.938,0,1.699,0.629,1.699,1.406V29.432z"/>
				</g>
			</g>
			<path fill="#FFFFFF" d="M37.957,27.832c0,0.777-0.761,1.406-1.699,1.406H12.452c-0.939,0-1.7-0.629-1.7-1.406V13.044
				c0-0.777,0.761-1.406,1.7-1.406h23.806c0.938,0,1.699,0.629,1.699,1.406V27.832z"/>
			<g opacity="0.2">
				<g>
					<defs>
						<rect id="SVGID_9_" x="15.952" y="12.038" width="16.806" height="2.4"/>
					</defs>
					<clipPath id="SVGID_10_">
						<use xlink:href="#SVGID_9_"  overflow="visible"/>
					</clipPath>
					<path clip-path="url(#SVGID_10_)" fill="#231F20" d="M31.558,14.438H17.151c-0.663,0-1.2-0.537-1.2-1.2
						c0-0.664,0.537-1.2,1.2-1.2h14.406c0.663,0,1.2,0.537,1.2,1.2C32.758,13.901,32.221,14.438,31.558,14.438"/>
				</g>
			</g>
			<g opacity="0.2">
				<g>
					<defs>
						<rect id="SVGID_11_" x="15.952" y="29.639" width="16.806" height="2.4"/>
					</defs>
					<clipPath id="SVGID_12_">
						<use xlink:href="#SVGID_11_"  overflow="visible"/>
					</clipPath>
					<path clip-path="url(#SVGID_12_)" fill="#231F20" d="M31.558,32.039H17.151c-0.663,0-1.2-0.538-1.2-1.201
						c0-0.664,0.537-1.199,1.2-1.199h14.406c0.663,0,1.2,0.535,1.2,1.199C32.758,31.501,32.221,32.039,31.558,32.039"/>
				</g>
			</g>
			
				<line fill="none" stroke="#F5CF87" stroke-width="2.4" stroke-linecap="round" stroke-linejoin="round" stroke-miterlimit="10" x1="17.151" y1="12.038" x2="31.558" y2="12.038"/>
			
				<line fill="none" stroke="#F5CF87" stroke-width="2.4" stroke-linecap="round" stroke-linejoin="round" stroke-miterlimit="10" x1="17.151" y1="29.639" x2="31.558" y2="29.639"/>
			<path fill="none" stroke="#C75C5C" stroke-width="2.4" stroke-linecap="round" stroke-miterlimit="10" d="M14.352,26.039
				c0,0,8.801-14.401,8.801-8.001s0,8.001,1.604,6.4c1.601-1.6,5.601-6.4,9.601-7.2"/>
		</g>
	</g>
</g>
</svg>
